<?xml version="1.0" standalone="no"?>
<!DOCTYPE svg PUBLIC "-//W3C//DTD SVG 20010904//EN"
 "http://www.w3.org/TR/2001/REC-SVG-20010904/DTD/svg10.dtd">
<svg version="1.0" xmlns="http://www.w3.org/2000/svg"
 width="1707.000000pt" height="1704.000000pt" viewBox="0 0 1707.000000 1704.000000"
 preserveAspectRatio="xMidYMid meet">

<g transform="translate(0.000000,1704.000000) scale(0.100000,-0.100000)"
fill="#000000" stroke="none">
<path d="M13905 16000 c-215 -69 -553 -204 -840 -337 -151 -70 -536 -279 -682
-371 -371 -233 -824 -556 -1073 -766 -420 -355 -953 -967 -1276 -1467 -37 -57
-84 -129 -104 -159 -21 -30 -52 -80 -70 -110 -291 -492 -367 -651 -481 -995
-85 -258 -149 -530 -171 -735 -19 -169 -16 -528 4 -635 44 -232 165 -483 295
-613 30 -30 51 -58 46 -62 -4 -3 -39 -19 -76 -35 -76 -31 -125 -61 -141 -87
-9 -15 -4 -23 24 -48 19 -17 58 -46 85 -64 76 -51 245 -231 283 -303 27 -52
32 -69 26 -100 -10 -57 -127 -312 -190 -416 -31 -51 -83 -137 -116 -192 -56
-93 -241 -346 -487 -664 -155 -201 -425 -549 -597 -771 -184 -237 -414 -560
-524 -735 -45 -71 -121 -209 -169 -305 -49 -96 -100 -197 -115 -225 l-27 -50
26 -3 c15 -2 33 -1 40 2 7 2 47 73 89 156 42 83 109 204 149 268 40 64 90 146
110 182 20 36 60 99 89 141 29 42 86 124 125 182 40 58 92 130 116 159 23 29
85 109 136 178 52 69 131 168 176 220 188 219 376 459 563 720 57 80 106 147
109 150 6 6 -56 -115 -91 -177 -13 -23 -25 -40 -28 -38 -5 5 -217 -297 -278
-395 -19 -30 -37 -57 -40 -60 -3 -3 -26 -32 -51 -65 -25 -33 -97 -127 -160
-210 -63 -82 -157 -206 -209 -275 -52 -69 -99 -130 -105 -137 -5 -6 -20 -24
-32 -40 -12 -15 -34 -41 -48 -57 -14 -16 -25 -32 -25 -36 0 -3 -8 -15 -18 -26
-95 -103 -244 -368 -296 -525 -19 -57 -47 -135 -64 -174 -41 -97 -45 -112 -30
-118 8 -2 56 0 108 5 52 5 114 9 138 8 48 -1 39 -15 130 200 68 160 242 482
357 660 23 36 73 117 111 180 38 63 72 117 75 120 4 3 16 23 28 45 11 22 58
101 104 175 46 74 97 160 113 190 17 30 70 117 118 194 93 148 159 270 159
292 0 8 4 14 9 14 5 0 6 4 3 10 -3 6 2 10 12 11 10 0 13 3 6 6 -10 3 -9 8 2
20 8 8 13 19 10 24 -4 5 -2 9 3 9 10 0 25 37 23 53 -1 5 3 6 8 3 5 -3 12 1 15
10 4 9 2 13 -5 8 -15 -9 48 109 71 134 10 11 16 23 13 26 -4 3 -1 6 5 6 15 0
16 1 -8 -48 -12 -24 -18 -47 -15 -52 3 -6 2 -10 -4 -10 -5 0 -21 -24 -34 -52
-111 -233 -186 -383 -231 -461 -30 -51 -90 -154 -135 -229 -44 -76 -106 -186
-137 -245 -73 -141 -126 -237 -134 -243 -3 -3 -21 -32 -40 -65 -18 -33 -44
-80 -58 -105 -73 -130 -98 -176 -158 -300 -133 -270 -212 -455 -219 -513 l-4
-29 72 6 c241 18 236 17 258 47 15 22 28 29 53 29 19 0 39 -6 45 -14 15 -17
25 -16 266 30 295 58 658 154 905 241 347 123 525 197 850 354 269 129 425
214 548 294 103 68 118 87 102 129 -11 31 0 56 26 56 8 0 14 6 14 14 0 8 7 17
15 20 12 4 14 10 5 25 -13 25 -13 31 0 31 6 0 10 -7 10 -15 0 -8 5 -15 11 -15
5 0 7 -5 3 -12 -4 -7 -3 -8 4 -4 7 4 28 -8 49 -28 34 -32 39 -34 62 -21 15 7
39 27 55 44 16 17 33 28 38 25 4 -3 8 2 8 10 0 8 7 16 15 18 13 3 13 7 -1 33
-9 17 -23 42 -30 56 -8 15 -26 35 -40 45 -32 24 -59 73 -47 85 12 12 96 -48
88 -61 -3 -6 -1 -10 5 -10 7 0 37 -22 68 -50 61 -54 69 -57 98 -36 18 14 17
17 -33 68 -29 30 -53 57 -53 61 0 4 28 -15 61 -43 54 -45 96 -61 93 -36 -1 5
-64 66 -140 135 -156 142 -446 447 -563 592 -76 94 -122 160 -219 321 -26 43
-84 137 -128 210 -120 195 -284 533 -284 583 0 47 281 368 429 490 116 96 87
121 -237 210 -24 6 -44 14 -45 17 -2 6 100 100 183 168 177 144 586 538 784
755 274 301 933 1164 1119 1466 35 57 144 226 242 374 98 149 216 327 261 397
100 153 307 497 372 617 25 47 118 210 207 361 508 865 727 1330 876 1858 48
171 46 194 -13 149 -64 -49 -449 -458 -698 -743 -52 -59 -169 -187 -260 -284
-91 -97 -196 -212 -234 -255 -39 -44 -142 -154 -231 -245 -89 -91 -213 -219
-276 -285 -141 -149 -702 -694 -864 -840 -570 -513 -773 -684 -1020 -855 -66
-46 -137 -98 -158 -116 -55 -46 -148 -93 -200 -100 -38 -5 -47 -3 -66 17 -21
22 -22 31 -16 89 17 179 165 474 454 910 281 423 480 651 1079 1238 207 203
427 415 487 471 256 239 772 656 1160 937 147 107 180 135 180 155 0 33 -16
33 -120 -1z m-20 -58 c-6 -5 -50 -36 -100 -70 -49 -34 -162 -118 -250 -187
-88 -70 -230 -181 -315 -248 -424 -334 -830 -698 -1215 -1089 -472 -479 -675
-722 -953 -1138 -145 -216 -330 -564 -416 -783 -48 -121 -45 -246 7 -282 13
-9 44 -15 83 -15 98 0 194 55 474 270 551 423 1019 839 1635 1455 366 365 576
588 1000 1060 506 564 824 909 832 902 8 -8 -110 -346 -169 -487 -85 -200
-353 -732 -493 -980 -64 -113 -162 -288 -217 -390 -107 -197 -635 -1078 -776
-1295 -110 -170 -452 -672 -568 -833 -377 -528 -406 -567 -563 -752 -216 -254
-346 -395 -591 -641 -304 -304 -427 -411 -689 -598 l-75 -53 -115 11 c-170 17
-576 16 -686 -2 l-89 -14 -92 93 c-83 83 -98 104 -153 216 -76 154 -116 276
-131 398 -15 115 -14 448 1 574 42 361 155 743 349 1176 151 338 511 892 874
1345 164 205 359 418 626 686 213 213 296 289 367 336 50 34 156 108 235 165
503 364 867 588 1353 831 240 120 403 192 630 278 180 68 207 77 190 61z
m-2444 -8509 c13 -16 12 -17 -3 -4 -10 7 -18 15 -18 17 0 8 8 3 21 -13z m37
-48 c11 -14 23 -25 27 -25 7 0 35 -26 35 -33 0 -2 -6 -4 -12 -4 -7 0 -20 -3
-28 -5 -8 -3 -12 -3 -7 -1 4 3 -3 13 -15 24 -16 12 -18 18 -9 19 10 0 7 8 -9
25 -13 14 -19 25 -12 25 6 0 19 -11 30 -25z m-38 -6 c0 -6 -4 -7 -10 -4 -5 3
-10 11 -10 16 0 6 5 7 10 4 6 -3 10 -11 10 -16z m229 -66 c2 -2 2 -5 -1 -8 -2
-3 -18 10 -34 28 l-29 32 30 -25 c17 -14 32 -26 34 -27z"/>
<path d="M10661 10605 c-58 -19 -125 -47 -150 -62 -95 -55 -199 -171 -262
-291 -40 -77 -49 -177 -22 -232 39 -77 172 -97 343 -51 126 33 193 72 290 171
91 91 123 141 165 259 58 159 6 231 -170 238 -82 3 -100 0 -194 -32z"/>
<path d="M9427 10568 c-26 -20 -37 -64 -37 -147 0 -137 45 -256 141 -371 56
-67 94 -95 153 -111 85 -23 113 26 102 182 -15 233 -163 459 -300 459 -23 0
-50 -6 -59 -12z"/>
<path d="M14398 7150 c-126 -22 -212 -69 -276 -153 -51 -66 -74 -132 -71 -206
3 -52 2 -54 -30 -67 -74 -31 -896 -294 -919 -294 -29 0 -401 186 -536 267 -50
31 -129 81 -176 113 -47 32 -137 91 -200 133 -63 41 -148 104 -189 141 -73 65
-94 76 -107 55 -8 -14 35 -58 121 -124 39 -29 79 -61 91 -71 95 -84 170 -144
181 -144 5 0 16 -9 26 -20 9 -11 13 -20 7 -20 -5 0 -11 4 -14 9 -4 5 -17 8
-31 6 -18 -1 -33 6 -48 24 -12 15 -37 36 -55 46 -18 11 -35 27 -38 37 -3 10
-9 16 -13 13 -11 -6 -87 63 -83 76 1 6 -2 8 -8 4 -13 -8 -42 14 -34 26 3 5 1
8 -4 7 -5 -2 -39 21 -75 50 -57 46 -69 52 -87 42 -11 -6 -20 -15 -20 -20 0
-11 66 -89 93 -108 34 -26 66 -66 60 -75 -3 -6 -1 -7 5 -3 16 10 92 -63 84
-83 -5 -13 -3 -14 9 -5 11 9 17 9 27 -2 7 -7 13 -17 15 -21 1 -5 4 -7 7 -6 3
1 21 -12 40 -29 19 -16 28 -27 20 -23 -8 4 -3 -4 11 -18 20 -18 24 -28 17 -41
-7 -13 -5 -21 9 -32 17 -14 17 -15 -2 -6 -11 6 -33 22 -49 37 -23 21 -26 29
-15 35 11 8 11 10 -1 14 -8 3 -24 4 -35 3 -14 -1 -20 4 -19 15 1 10 -2 15 -8
12 -5 -3 -20 6 -33 20 -13 14 -20 27 -17 29 4 2 1 2 -6 1 -7 -2 -44 28 -82 65
-39 38 -70 66 -70 63 0 -4 -4 -2 -8 4 -10 14 -123 94 -134 94 -4 0 -27 -9 -51
-19 -23 -11 -63 -28 -89 -40 -27 -11 -48 -26 -48 -33 0 -7 18 -35 39 -63 37
-46 46 -80 15 -54 -10 8 -14 8 -14 0 0 -6 -13 -11 -30 -11 -26 0 -30 -4 -30
-26 0 -14 -4 -23 -10 -19 -5 3 -10 1 -10 -5 0 -6 -12 2 -26 20 -27 32 -84 67
-84 52 0 -5 -6 -9 -12 -9 -7 -1 -65 -29 -128 -64 -282 -153 -605 -319 -782
-400 -318 -145 -444 -194 -873 -332 -153 -50 -431 -117 -685 -167 -238 -46
-288 -58 -310 -76 -8 -7 -32 -17 -52 -22 -35 -10 -38 -9 -38 10 0 17 -5 19
-32 15 -18 -3 -80 -13 -138 -21 -143 -22 -165 -31 -183 -69 -21 -45 -60 -175
-88 -289 -12 -54 -25 -98 -28 -98 -52 2 -58 174 -12 337 12 40 21 77 21 83 0
14 -63 0 -77 -18 -8 -10 -13 -11 -13 -4 0 9 -19 11 -72 7 -126 -9 -158 -16
-173 -39 -24 -36 -82 -208 -90 -263 -6 -48 -9 -52 -26 -42 -30 16 -67 81 -77
137 -8 43 -6 58 10 94 42 91 42 88 2 88 -33 0 -37 -3 -59 -55 -49 -110 -41
-165 41 -276 67 -92 296 -222 414 -236 43 -5 54 -2 85 22 20 15 39 35 42 44
12 32 26 28 107 -27 139 -95 249 -133 324 -112 33 8 44 18 59 50 10 22 21 40
25 40 18 0 159 -93 151 -101 -4 -4 -55 -22 -113 -40 -91 -28 -124 -32 -248
-37 -138 -4 -339 10 -405 29 -29 8 -67 -6 -397 -147 -201 -86 -1269 -543
-2375 -1016 -1105 -473 -2399 -1026 -2875 -1230 -673 -288 -907 -393 -1052
-471 -190 -103 -225 -124 -217 -131 9 -8 308 74 396 108 51 20 99 36 108 36 8
0 1013 324 2233 721 3515 1142 3823 1242 4082 1323 272 86 418 134 530 178
l75 29 38 80 c31 66 55 98 135 177 112 112 156 137 377 214 l140 48 5 -53 c6
-68 27 -99 87 -128 43 -21 63 -24 188 -26 l139 -1 18 -69 c30 -115 116 -742
143 -1038 14 -154 32 -343 40 -420 32 -295 45 -567 51 -1045 4 -339 3 -538 -5
-630 -20 -238 -25 -426 -12 -435 22 -13 32 10 72 162 73 280 100 482 144 1073
22 291 25 400 25 835 0 609 -4 681 -85 1495 -7 74 -12 136 -11 137 0 0 48 15
106 31 100 29 114 30 300 30 289 1 833 52 892 83 18 10 24 8 37 -9 9 -11 29
-37 45 -57 42 -55 82 -75 147 -75 44 0 60 -4 70 -19 8 -10 58 -73 112 -140 54
-67 111 -143 126 -170 16 -26 69 -106 118 -177 299 -432 461 -692 620 -993
335 -633 406 -783 733 -1571 40 -96 103 -267 140 -380 56 -171 70 -205 86
-205 28 0 29 61 5 229 -37 249 -151 679 -266 1001 -130 364 -230 625 -283 745
-33 74 -79 180 -102 235 -126 299 -493 967 -762 1389 -104 162 -143 235 -131
246 4 4 94 42 198 84 105 43 229 96 277 118 l87 41 56 -52 c76 -69 108 -69
237 -4 81 41 109 63 214 168 117 117 201 228 263 350 15 27 29 55 33 61 5 7
27 1 68 -19 l61 -30 29 28 c37 35 94 151 115 233 23 90 12 116 -93 219 -49 49
-81 87 -76 92 12 11 260 103 339 126 33 9 116 35 185 56 69 22 162 52 207 66
l82 26 69 -31 c148 -66 331 -79 454 -32 74 27 159 104 192 173 38 77 45 183
17 262 -33 95 -76 117 -141 73 -59 -41 -74 -70 -73 -145 1 -126 -35 -158 -177
-158 -153 1 -227 36 -265 129 -42 100 35 176 178 176 35 0 85 -6 111 -14 47
-14 47 -14 59 11 14 31 6 36 -74 53 -141 30 -292 -27 -335 -127 -12 -27 -11
-39 2 -85 12 -42 28 -65 75 -110 67 -65 113 -83 233 -94 65 -6 78 -4 127 19
30 15 67 43 84 64 27 34 30 45 32 118 1 73 3 81 28 103 15 13 35 22 43 20 23
-5 54 -94 54 -158 1 -77 -25 -131 -88 -189 -77 -70 -123 -90 -230 -97 -96 -6
-189 12 -293 57 -45 19 -51 25 -51 51 0 40 -26 48 -53 15 -18 -21 -96 -49
-448 -161 l-426 -136 -77 44 -78 44 49 15 c26 9 219 71 428 137 209 67 406
133 439 148 57 25 60 25 102 10 25 -9 46 -12 49 -8 10 16 -45 60 -83 66 -38 6
-40 8 -45 48 -8 78 10 134 62 183 105 102 208 133 379 114 54 -6 115 -18 136
-26 38 -16 96 -13 96 5 0 5 -26 20 -57 35 -88 40 -221 54 -335 35z m-2008
-443 c0 -5 -4 -6 -9 -3 -5 4 -11 0 -14 -6 -3 -10 -10 -8 -23 5 -14 13 -15 17
-4 15 9 -2 16 6 18 22 l4 24 14 -24 c7 -14 13 -29 14 -33z m-70 33 c0 -5 -4
-10 -10 -10 -5 0 -10 5 -10 10 0 6 5 10 10 10 6 0 10 -4 10 -10z m150 -61 c0
-5 5 -7 12 -3 7 4 8 3 4 -5 -6 -9 -11 -9 -22 0 -17 14 -18 19 -4 19 6 0 10 -5
10 -11z m-171 -70 c-16 -10 -23 -4 -14 10 3 6 11 8 17 5 6 -4 5 -9 -3 -15z
m46 -19 c3 -6 -1 -7 -9 -4 -18 7 -21 14 -7 14 6 0 13 -4 16 -10z m-447 -95
c-3 -3 -9 2 -12 12 -6 14 -5 15 5 6 7 -7 10 -15 7 -18z m-3879 -1582 c31 -10
63 -24 71 -32 10 -9 15 -10 18 -2 2 6 8 11 14 11 6 0 6 -6 -2 -15 -10 -12 -10
-21 -1 -43 11 -26 26 -44 107 -134 104 -116 184 -231 184 -267 0 -6 -84 -38
-187 -71 -104 -34 -523 -171 -933 -305 -914 -299 -1502 -490 -4345 -1417 -489
-159 -980 -319 -1090 -355 -234 -77 -258 -84 -262 -80 -3 3 514 225 3552 1525
2089 895 2805 1200 2814 1201 2 1 29 -7 60 -16z"/>
<path d="M12165 6870 c10 -11 20 -20 23 -20 3 0 -3 9 -13 20 -10 11 -20 20
-23 20 -3 0 3 -9 13 -20z"/>
<path d="M12010 6846 c0 -2 8 -10 18 -17 15 -13 16 -12 3 4 -13 16 -21 21 -21
13z"/>
<path d="M14235 6650 c3 -5 8 -10 11 -10 2 0 4 5 4 10 0 6 -5 10 -11 10 -5 0
-7 -4 -4 -10z"/>
</g>
</svg>
