<?xml version="1.0" standalone="no"?>
<!DOCTYPE svg PUBLIC "-//W3C//DTD SVG 20010904//EN"
 "http://www.w3.org/TR/2001/REC-SVG-20010904/DTD/svg10.dtd">
<svg version="1.0" xmlns="http://www.w3.org/2000/svg"
 width="28.000000pt" height="28.000000pt" viewBox="0 0 28.000000 28.000000"
 preserveAspectRatio="xMidYMid meet">

<g transform="translate(0.000000,28.000000) scale(0.100000,-0.100000)"
fill="#000000" stroke="none">
<path d="M95 265 c-124 -44 -116 -220 12 -254 112 -30 202 76 155 183 -32 71
-94 97 -167 71z m106 -49 c5 3 9 -2 9 -11 0 -9 4 -14 9 -10 10 6 -5 -59 -21
-88 -14 -27 -37 -4 -45 47 l-7 41 -6 -35 c-4 -26 -1 -38 12 -48 10 -7 18 -24
18 -38 0 -23 -3 -24 -60 -24 l-60 0 0 30 c0 18 6 33 15 36 9 4 14 17 13 33 -3
39 9 51 48 51 21 0 33 4 29 10 -3 6 1 7 9 4 10 -4 16 -1 17 7 0 11 2 11 6 1 2
-6 9 -10 14 -6z"/>
<path d="M90 156 c0 -21 21 -31 30 -15 5 7 6 17 4 21 -9 14 -34 9 -34 -6z"/>
<path d="M98 113 c7 -3 16 -2 19 1 4 3 -2 6 -13 5 -11 0 -14 -3 -6 -6z"/>
</g>
</svg>
